<svg xmlns="http://www.w3.org/2000/svg" version="1.1" xmlns:xlink="http://www.w3.org/1999/xlink" xmlns:svgjs="http://svgjs.dev/svgjs" width="1440" height="560" preserveAspectRatio="none" viewBox="0 0 1440 560"><g mask="url(&quot;#SvgjsMask1032&quot;)" fill="none"><rect width="1440" height="560" x="0" y="0" fill="url(&quot;#SvgjsLinearGradient1033&quot;)"></rect><path d="M1440 0L962.7 0L1440 56.52z" fill="rgba(255, 255, 255, .1)"></path><path d="M962.7 0L1440 56.52L1440 241.91L490.70000000000005 0z" fill="rgba(255, 255, 255, .075)"></path><path d="M490.70000000000005 0L1440 241.91L1440 382.08L224.85000000000002 0z" fill="rgba(255, 255, 255, .05)"></path><path d="M224.8499999999999 0L1440 382.08L1440 456.25L102.54999999999991 0z" fill="rgba(255, 255, 255, .025)"></path><path d="M0 560L488.97 560L0 317.08000000000004z" fill="rgba(0, 0, 0, .1)"></path><path d="M0 317.08000000000004L488.97 560L766.53 560L0 285.27000000000004z" fill="rgba(0, 0, 0, .075)"></path><path d="M0 285.27000000000004L766.53 560L896.0999999999999 560L0 219.58000000000004z" fill="rgba(0, 0, 0, .05)"></path><path d="M0 219.58000000000004L896.0999999999999 560L1196.5 560L0 153.79000000000002z" fill="rgba(0, 0, 0, .025)"></path></g><defs><mask id="SvgjsMask1032"><rect width="1440" height="560" fill="#ffffff"></rect></mask><linearGradient x1="15.28%" y1="139.29%" x2="84.72%" y2="-39.29%" gradientUnits="userSpaceOnUse" id="SvgjsLinearGradient1033"><stop stop-color="#0e2a47" offset="0"></stop><stop stop-color="rgba(62, 0, 158, 1)" offset="1"></stop></linearGradient></defs></svg>